<svg width="20" height="21" viewBox="0 0 20 21" fill="none" xmlns="http://www.w3.org/2000/svg">
<path d="M10 0.5C4.47768 0.5 0 4.97768 0 10.5C0 16.0223 4.47768 20.5 10 20.5C15.5223 20.5 20 16.0223 20 10.5C20 4.97768 15.5223 0.5 10 0.5ZM10 18.8036C5.41518 18.8036 1.69643 15.0848 1.69643 10.5C1.69643 5.91518 5.41518 2.19643 10 2.19643C14.5848 2.19643 18.3036 5.91518 18.3036 10.5C18.3036 15.0848 14.5848 18.8036 10 18.8036Z" fill="white"/>
<path d="M13.8995 13.3259L10.7164 11.0245V5.49998C10.7164 5.40177 10.6361 5.32141 10.5379 5.32141H9.46422C9.366 5.32141 9.28564 5.40177 9.28564 5.49998V11.6473C9.28564 11.7053 9.31243 11.7589 9.3593 11.7924L13.0513 14.4844C13.1316 14.5424 13.2432 14.5245 13.3013 14.4464L13.9397 13.5759C13.9977 13.4933 13.9798 13.3817 13.8995 13.3259Z" fill="white"/>
</svg>
