<svg width="46" height="47" viewBox="0 0 46 47" fill="none" xmlns="http://www.w3.org/2000/svg">
<rect y="0.5" width="46" height="46" rx="23" fill="#1A1A1B"/>
<g clip-path="url(#clip0_444_3297)">
<path fill-rule="evenodd" clip-rule="evenodd" d="M27.6504 12.4057L28.3955 13.7641H32.5346C32.9005 13.7641 33.2515 13.9073 33.5102 14.162C33.769 14.4168 33.9143 14.7623 33.9143 15.1226C33.9143 15.4829 33.769 15.8285 33.5102 16.0832C33.2515 16.338 32.9005 16.4811 32.5346 16.4811H13.2186C12.8527 16.4811 12.5017 16.338 12.243 16.0832C11.9842 15.8285 11.8389 15.4829 11.8389 15.1226C11.8389 14.7623 11.9842 14.4168 12.243 14.162C12.5017 13.9073 12.8527 13.7641 13.2186 13.7641H17.3577L17.9521 12.4057C17.9521 12.4057 17.9521 11.5 20.1172 11.5H25.636C27.6504 11.5 27.6504 12.4057 27.6504 12.4057ZM16.4306 20.4207C16.4168 20.24 16.3664 20.0637 16.2824 19.9024C16.1983 19.7411 16.0823 19.598 15.9413 19.4815C15.8002 19.365 15.6369 19.2775 15.4609 19.2242C15.2849 19.1708 15.0999 19.1526 14.9167 19.1708C14.7335 19.1889 14.5558 19.243 14.3942 19.3297C14.2325 19.4165 14.0902 19.5343 13.9755 19.6761C13.8608 19.8179 13.776 19.9809 13.7263 20.1554C13.6766 20.33 13.6628 20.5126 13.6858 20.6924L14.9 32.6471C14.9798 33.4289 15.3517 34.1537 15.9434 34.6808C16.5352 35.2079 17.3048 35.4999 18.1028 35.5H27.6504C29.3061 35.5 30.6895 34.2665 30.8532 32.6453L32.0673 20.6906C32.0931 20.3378 31.9781 19.989 31.7467 19.7183C31.5153 19.4477 31.1858 19.2766 30.8283 19.2415C30.4708 19.2063 30.1134 19.3099 29.8323 19.5301C29.5511 19.7503 29.3682 20.0698 29.3226 20.4207L28.1085 32.3755C28.0971 32.4872 28.0439 32.5908 27.9592 32.6661C27.8746 32.7415 27.7645 32.7831 27.6504 32.783H18.1028C17.9887 32.7831 17.8786 32.7415 17.794 32.6661C17.7093 32.5908 17.6561 32.4872 17.6447 32.3755L16.4306 20.4207Z" fill="white"/>
</g>
<defs>
<clipPath id="clip0_444_3297">
<rect width="24" height="24" fill="white" transform="translate(11 11.5)"/>
</clipPath>
</defs>
</svg>
