<svg width="23" height="25" viewBox="0 0 23 25" fill="none" xmlns="http://www.w3.org/2000/svg">
<path d="M1.33398 4.5V20.5V4.5ZM21.334 15.8333V20.5V15.8333ZM21.334 15.8333H1.33398H21.334ZM10.334 7.16667V15.8333H21.334V9.16667C21.334 8.63623 21.1759 8.12753 20.8946 7.75245C20.6133 7.37738 20.2318 7.16667 19.834 7.16667H10.334Z" fill="white"/>
<path d="M1.33398 4.5V20.5M21.334 15.8333V20.5M21.334 15.8333H1.33398M10.334 7.16667V15.8333H21.334V9.16667C21.334 8.63623 21.1759 8.12753 20.8946 7.75245C20.6133 7.37738 20.2318 7.16667 19.834 7.16667H10.334Z" stroke="white" stroke-width="2" stroke-linecap="round" stroke-linejoin="round"/>
<path d="M5.83398 11.8333C6.66241 11.8333 7.33398 10.9378 7.33398 9.83325C7.33398 8.72868 6.66241 7.83325 5.83398 7.83325C5.00556 7.83325 4.33398 8.72868 4.33398 9.83325C4.33398 10.9378 5.00556 11.8333 5.83398 11.8333Z" stroke="white" stroke-width="2"/>
</svg>
