<svg width="21" height="21" viewBox="0 0 21 21" fill="none" xmlns="http://www.w3.org/2000/svg">
<path d="M18.031 6.965C18.1717 6.47116 18.2022 5.95243 18.1204 5.44551C18.0385 4.93858 17.8462 4.45583 17.5572 4.03141C17.2681 3.60699 16.8893 3.25127 16.4476 2.98941C16.0059 2.72754 15.5121 2.56593 15.001 2.516C14.7959 1.92762 14.413 1.41753 13.9053 1.05635C13.3975 0.695163 12.7901 0.500744 12.167 0.5C11.4266 0.502508 10.7136 0.780565 10.167 1.28C9.62038 0.780565 8.90741 0.502508 8.16699 0.5C6.86599 0.5 5.75699 1.331 5.34199 2.515C4.83003 2.56368 4.33504 2.72442 3.89216 2.98583C3.44927 3.24723 3.06934 3.6029 2.77931 4.02759C2.48928 4.45228 2.29626 4.93559 2.21394 5.44324C2.13162 5.95088 2.16203 6.47042 2.30299 6.965C1.66103 7.30655 1.12349 7.81552 0.747427 8.43789C0.37136 9.06027 0.170788 9.77284 0.166992 10.5C0.166992 11.575 0.594992 12.586 1.33899 13.332C1.22515 13.7109 1.16721 14.1044 1.16699 14.5C1.16699 16.457 2.57899 18.09 4.47299 18.434C4.75104 19.0485 5.20003 19.5701 5.76637 19.9364C6.33271 20.3027 6.9925 20.4984 7.66699 20.5C8.64599 20.5 9.53099 20.093 10.167 19.441C10.4916 19.7759 10.8802 20.0421 11.3096 20.224C11.739 20.406 12.2006 20.4998 12.667 20.5C13.3403 20.4988 13.999 20.3039 14.5646 19.9386C15.1302 19.5734 15.5789 19.0532 15.857 18.44C16.4149 18.3416 16.9457 18.126 17.4142 17.8074C17.8827 17.4888 18.2783 17.0745 18.5748 16.5918C18.8714 16.109 19.0622 15.5689 19.1346 15.007C19.207 14.445 19.1594 13.8742 18.995 13.332C19.3668 12.9601 19.6617 12.5185 19.8628 12.0326C20.0639 11.5467 20.1672 11.0259 20.167 10.5C20.1632 9.77284 19.9626 9.06027 19.5866 8.43789C19.2105 7.81552 18.673 7.30655 18.031 6.965ZM7.66699 18.5C6.95599 18.5 6.33699 17.996 6.19699 17.302L5.98499 16.5H5.16699C4.06399 16.5 3.16699 15.603 3.16699 14.5C3.16699 14.148 3.25199 13.818 3.41999 13.519L3.87599 12.703L3.09199 12.193C2.80878 12.0104 2.57576 11.7598 2.4142 11.4641C2.25263 11.1684 2.16765 10.837 2.16699 10.5C2.16699 9.523 2.88999 8.676 3.84899 8.528L5.54199 8.268L4.48299 6.922C4.2944 6.67887 4.18503 6.38369 4.16967 6.07637C4.15432 5.76906 4.23371 5.46444 4.39713 5.20372C4.56054 4.94301 4.80008 4.73877 5.08336 4.61863C5.36663 4.49849 5.67997 4.46825 5.98099 4.532L7.16699 4.707V3.5C7.16699 3.23478 7.27235 2.98043 7.45989 2.79289C7.64742 2.60536 7.90178 2.5 8.16699 2.5C8.43221 2.5 8.68656 2.60536 8.8741 2.79289C9.06164 2.98043 9.16699 3.23478 9.16699 3.5V17C9.16699 17.827 8.49399 18.5 7.66699 18.5ZM17.242 12.192L16.458 12.702L16.914 13.518C17.082 13.818 17.167 14.148 17.167 14.5C17.167 15.603 16.27 16.5 15.117 16.5H14.299L14.137 17.302C14.0671 17.6403 13.8827 17.9441 13.615 18.1623C13.3472 18.3805 13.0124 18.4998 12.667 18.5C11.84 18.5 11.167 17.827 11.167 17V3.5C11.167 2.948 11.615 2.5 12.167 2.5C12.719 2.5 13.167 2.948 13.167 3.55V4.757L14.353 4.532C14.654 4.46825 14.9674 4.49849 15.2506 4.61863C15.5339 4.73877 15.7734 4.94301 15.9369 5.20372C16.1003 5.46444 16.1797 5.76906 16.1643 6.07637C16.149 6.38369 16.0396 6.67887 15.851 6.922L14.792 8.269L16.485 8.529C16.9535 8.60486 17.3798 8.84468 17.6879 9.20569C17.9959 9.5667 18.1657 10.0254 18.167 10.5C18.167 11.183 17.821 11.815 17.242 12.192Z" fill="white"/>
</svg>
