<svg width="20" height="21" viewBox="0 0 20 21" fill="none" xmlns="http://www.w3.org/2000/svg">
<path d="M3.53365 5.98828C4.01202 5.98828 4.39904 5.67383 4.39904 5.28516V1.20312C4.39904 0.814453 4.01202 0.5 3.53365 0.5C3.05529 0.5 2.66827 0.814453 2.66827 1.20312V5.28516C2.66827 5.67383 3.05529 5.98828 3.53365 5.98828ZM18.2692 8.80078H15.3846C15.3846 8.02344 14.6106 7.39453 13.6538 7.39453H1.73077C0.774038 7.39453 0 8.02344 0 8.80078V13.6445C0 13.7109 0.00480762 13.7754 0.0168268 13.8379C0.00480762 13.9746 0 14.1113 0 14.25C0 17.7012 3.44471 20.5 7.69231 20.5C11.5409 20.5 14.7284 18.2051 15.2957 15.207H18.2692C19.226 15.207 20 14.5781 20 13.8008V10.207C20 9.42969 19.226 8.80078 18.2692 8.80078ZM13.6538 13.8008H13.6274C13.6442 13.9492 13.6538 14.0977 13.6538 14.25C13.6538 16.9258 10.9856 19.0938 7.69231 19.0938C4.39904 19.0938 1.73077 16.9258 1.73077 14.25C1.73077 14.0977 1.74038 13.9492 1.75721 13.8008H1.73077V8.80078H13.6538V13.8008ZM18.2692 13.6445H15.5769V10.207H18.2692V13.6445ZM11.6587 5.98828C12.137 5.98828 12.524 5.67383 12.524 5.28516V1.20312C12.524 0.814453 12.137 0.5 11.6587 0.5C11.1803 0.5 10.7933 0.814453 10.7933 1.20312V5.28516C10.7933 5.67383 11.1803 5.98828 11.6587 5.98828ZM7.57212 5.98828C8.05048 5.98828 8.4375 5.67383 8.4375 5.28516V1.20312C8.4375 0.814453 8.05048 0.5 7.57212 0.5C7.09375 0.5 6.70673 0.814453 6.70673 1.20312V5.28516C6.70673 5.67383 7.09375 5.98828 7.57212 5.98828Z" fill="white"/>
</svg>
