<svg width="52" height="53" viewBox="0 0 52 53" fill="none" xmlns="http://www.w3.org/2000/svg">
<rect y="0.5" width="52" height="52" rx="26" fill="#84D5DA"/>
<path d="M28.9746 34.6915L37.9559 26.9383C38.2152 26.7165 38.2152 26.2883 37.9559 26.0664L28.9746 18.3102C28.6402 18.0227 28.1496 18.2821 28.1496 18.7477L28.1496 34.2571C28.1496 34.7196 28.6402 34.9821 28.9746 34.6915ZM18.9746 34.6915L27.9559 26.9383C28.0174 26.8833 28.0664 26.8159 28.0998 26.7404C28.1332 26.665 28.1502 26.5833 28.1496 26.5008C28.1496 26.3383 28.084 26.1758 27.9559 26.0633L18.9746 18.3071C18.6402 18.0196 18.1496 18.2789 18.1496 18.7446L18.1496 34.2571C18.1496 34.7196 18.6402 34.9821 18.9746 34.6915Z" fill="#0F0F0F"/>
</svg>
