<svg width="42" height="41" viewBox="0 0 42 41" fill="none" xmlns="http://www.w3.org/2000/svg">
<rect y="0.5" width="42" height="40" rx="10" fill="#1A1A1B"/>
<path d="M12.0542 30.5C12.1167 30.5 12.1792 30.4938 12.2417 30.4844L17.4975 29.5625C17.5599 29.55 17.6193 29.5219 17.6631 29.475L30.9086 16.2281C30.9376 16.1992 30.9606 16.1649 30.9762 16.1271C30.9919 16.0893 31 16.0487 31 16.0078C31 15.9669 30.9919 15.9264 30.9762 15.8886C30.9606 15.8508 30.9376 15.8164 30.9086 15.7875L25.7154 10.5906C25.656 10.5313 25.5779 10.5 25.4935 10.5C25.4092 10.5 25.331 10.5313 25.2717 10.5906L12.0261 23.8375C11.9792 23.8844 11.9511 23.9406 11.9386 24.0031L11.0168 29.2594C10.9864 29.4268 10.9973 29.5991 11.0485 29.7613C11.0997 29.9236 11.1896 30.071 11.3106 30.1906C11.5168 30.3906 11.7761 30.5 12.0542 30.5ZM14.1603 25.05L25.4935 13.7188L27.7839 16.0094L16.4507 27.3406L13.6728 27.8312L14.1603 25.05Z" fill="white"/>
</svg>
